<svg width="1392" height="4807" viewBox="0 0 1392 4807" fill="none" xmlns="http://www.w3.org/2000/svg">
<path d="M5 4.99988H1387V596.594V1263.59V2016.13V2418.26V2596.61L1387 3169.84V3743.06V3913.19V4385.41V4801.07H1139.11H395.922H5L5 4.99988Z" fill="#E1EAED"/>
<path d="M395.922 4801.07H5L5 4.99988H1387V596.594M395.922 4801.07V4385.41M395.922 4801.07H1139.11M395.922 3743.06H1387M395.922 3743.06L395.922 4385.41M395.922 3743.06L395.922 3166.94M1387 3743.06V3913.19V4385.41M1387 3743.06V3169.84M1387 4385.41V4801.07H1139.11M1387 4385.41H1139.11M395.922 4385.41H1139.11M1139.11 4801.07V4385.41M1387 2418.26V2016.13M1387 2418.26H1200.96M1387 2418.26V2596.61M804.241 2292.11H868.025V2418.26H1016.5M804.241 2292.11V2016.13M804.241 2292.11H717.745V2418.26H568.914M804.241 2016.13H1014.92M804.241 2016.13H267.87M1014.92 2016.13H1200.96M1014.92 2016.13L1016.5 2418.26M1387 2016.13H1200.96M1387 2016.13V1263.59M1200.96 2016.13V2418.26M1200.96 2418.26H1034.49H1016.5M568.914 2418.26H241.776L241.776 2218.64H267.87M568.914 2418.26V2218.64M568.914 2016.13V2218.64M418.15 2218.64V2084.76H267.87M418.15 2218.64H267.87M418.15 2218.64H568.914M267.87 2084.76V2016.13M267.87 2084.76V2218.64M267.87 2016.13L267.87 1263.59M267.87 1263.59H1387M267.87 1263.59L267.87 596.594H1387M1387 1263.59V596.594M395.922 2683.61H261.588V2596.61H545.236M395.922 2683.61H545.236V2596.61M395.922 2683.61V3166.94M545.236 2596.61H1387M1387 2596.61L1387 3169.84M395.922 3166.94L1387 3169.84" stroke="#616263" stroke-width="10"/>
</svg>
