<svg width="1450" height="5010" viewBox="0 0 1450 5010" fill="none" xmlns="http://www.w3.org/2000/svg">
<path d="M412.329 5005H264H5L5 4925.93L5 3563.93L5 4.99988H269H847H1182H1445V340.431V607.931L1445 1142.93V1232.93L1443.53 1407.93L1438 2065.93V2520.87V2655.93V2840.93V3025.93L1438 3212.43V4019.43V4535.43V4925.93V5005H1186.71H412.329Z" fill="#E1EAED"/>
<path d="M1438 4019.43V4535.43M1438 4019.43H865.75M1438 4019.43V3212.43M1438 4535.43V4925.93V5005H1186.71M1438 4535.43H1443.37H1301.5M264 4179.43H1301.5V4535.43M264 4179.43L264 4925.93V5005H1186.71M264 4179.43H156L156 3563.93H5M1186.71 5005H412.329H5L5 4925.93L5 3563.93M1186.71 5005V4535.43H1301.5M1186.71 5005V4925.93M1438 2520.87V2065.93M1438 2520.87H1251.15M1438 2520.87V2655.93M837.783 2389.36H904.245V2520.87H1058.95M837.783 2389.36L837.783 2065.93M837.783 2389.36H747.657V2520.87H592.58M837.783 2065.93H567.909M837.783 2065.93H853.5M1058.95 2065.93H1251.15M1058.95 2065.93V2520.87M1058.95 2065.93H853.5M1438 2065.93H1251.15M1438 2065.93L1443.53 1407.93M1251.15 2065.93H1182V2520.87H1200H1251.15M1251.15 2520.87H1077.7H1058.95M592.58 2520.87H251.713L251.713 2312.77H339M592.58 2520.87V2312.77M435.49 2312.77V2173.19H286.5M435.49 2312.77H339M435.49 2312.77H592.58M286.5 2173.19L285 2065.93M286.5 2173.19V2312.77H339M285 2065.93H567.909M285 2065.93L286.5 1407.93M1445 1232.93L1445 607.931M1445 1232.93V1142.93H1182V1407.93M1445 1232.93L1443.53 1407.93M1445 607.931H1420M1445 607.931V340.431M286.5 2777.93L286.5 2655.93H567.909M286.5 2777.93H567.909M286.5 2777.93L286.5 3061.43M567.909 2655.93L567.909 2777.93M567.909 2655.93H1006.45H1052M567.909 2777.93V2960.93M567.909 2777.93H1052M1438 2655.93H1313.5H1182M1438 2655.93V2840.93M286.5 3212.43L286.5 4019.43H865.75M286.5 3212.43L286.5 3061.43M286.5 3212.43H567.909M1438 3212.43L1438 3025.93M1438 3212.43H567.909M592.58 2312.77H567.909L567.909 2065.93M286.5 3061.43H567.909M865.75 4019.43V3212.43M1182 2655.93V2840.93M1182 2655.93H1052M1438 3025.93H1182V2850.93V2840.93M1438 3025.93V2840.93M1438 2840.93H1182M1052 2655.93V2777.93M567.909 2960.93H1052V2777.93M567.909 2960.93L567.909 3061.43M567.909 3061.43L567.909 3212.43M645.006 1142.93H286.5V1407.93M645.006 1142.93H1016.5V1407.93M645.006 1142.93V1407.93M1016.5 1407.93H1182M1016.5 1407.93H853.5M1182 1407.93H1443.53M286.5 1407.93H645.006M645.006 1407.93H853.5M853.5 1407.93V2065.93M1182 4.99988V340.431M1203.5 607.931H1182V340.431M1203.5 607.931V667.431M1203.5 607.931H1420M1420 607.931V667.431M1252 762.931H1203.5V992.431H1252M1195 1142.93V1098.43M1411.5 1134.43V1098.43M1182 340.431H1445M1445 340.431V4.99988H847H269H5L5 3563.93M269 607.931H1059V166.931H269V607.931Z" stroke="#616263" stroke-width="10"/>
</svg>
